<svg data-v-423bf9ae="" xmlns="http://www.w3.org/2000/svg" viewBox="0 0 412 112" class="iconLeft"><!----><!----><!----><g data-v-423bf9ae="" id="6a1a2866-0f7e-4a7a-8723-0895228af5e0" fill="white" transform="matrix(6.1224493980407715,0,0,6.1224493980407715,100.68111419677734,13.739227294921875)"><path d="M0.56 1.93L0.56 1.93L2.41 1.93L2.41 1.93Q2.43 1.94 2.43 1.97L2.43 1.97L2.43 6.73L2.43 6.73Q2.43 6.76 2.41 6.76L2.41 6.76L2.19 6.76L2.19 11.70L2.19 11.70Q2.19 11.73 2.15 11.73L2.15 11.73L0.56 11.73L0.56 11.73Q0.53 11.73 0.53 11.70L0.53 11.70L0.53 6.64L0.03 6.64L0.03 6.64Q0 6.64 0 6.61L0 6.61L0 6.40L0 6.40Q0.01 6.36 0.03 6.36L0.03 6.36L0.53 6.36L0.53 1.97L0.53 1.97Q0.53 1.93 0.56 1.93ZM1.48 6.36L0.54 6.36L0.54 6.64L1.48 6.64L1.48 6.36ZM3.01 1.96L3.01 1.96L5.01 1.96L5.01 1.96Q5.05 1.96 5.65 3.53L5.65 3.53L5.65 3.53Q5.70 3.59 6.91 6.62L6.91 6.62L7.42 6.62L7.42 1.96L9.17 1.96L9.17 7.51L9.37 7.51L9.37 9.67L8.66 9.67L8.66 10.08L9.37 10.08L9.37 11.37L6.75 11.37L6.75 9.73L6.28 9.73L6.28 9.73Q5.34 7.44 5.01 6.56L5.01 6.56L5.01 4.92L4.76 4.92L4.76 9.93L4.37 9.93L4.37 11.66L2.73 11.66L2.73 7.94L3.03 7.94L3.03 7.92L3.03 7.92Q3.01 3.09 3.01 1.96ZM6.88 6.62L5.95 6.62L5.95 6.98L7.04 6.98L7.04 6.98Q6.91 6.62 6.88 6.62L6.88 6.62ZM8.23 6.62L7.44 6.62L7.44 6.98L7.05 6.98L7.05 6.98Q7.40 7.85 7.47 8.11L7.47 8.11L7.49 8.11L7.49 8.07L7.49 8.07Q7.44 7.18 7.44 6.98L7.44 6.98L8.23 6.98L8.23 6.62ZM6.75 11.73L6.75 11.55L9.91 11.55L9.91 11.73L6.75 11.73ZM13.69 1.96L13.69 1.96L13.71 1.96L13.71 1.96Q15.89 1.96 16.38 3.38L16.38 3.38L16.38 3.38Q16.60 3.91 16.60 4.87L16.60 4.87L15.02 5.09L15.00 5.05L15.00 5.02L15.00 5.02Q15.00 3.86 14.22 3.64L14.22 3.64L14.22 3.64Q13.99 3.58 13.64 3.56L13.64 3.56L13.64 3.56Q12.80 3.56 12.55 4.47L12.55 4.47L12.55 4.47Q12.41 5.07 12.41 5.89L12.41 5.89L12.41 6.66L12.41 6.66Q12.41 7.99 12.44 8.67L12.44 8.67L12.84 8.67L12.84 10.03L14.79 10.03L14.79 7.70L13.56 7.70L13.56 6.45L17.25 6.45L17.25 6.72L16.77 6.72L16.77 8.16L15.78 8.16L15.78 8.62L16.26 8.62L16.26 11.39L10.98 11.39L10.98 9.91L10.38 9.91L10.38 9.78L10.64 9.78L10.64 9.64L10.98 9.64L10.98 9.08L10.06 9.08L10.06 7.90L10.49 7.90L10.49 7.90Q10.48 7.38 10.48 7.31L10.48 7.31L10.48 7.31Q10.48 4.20 10.81 3.56L10.81 3.56L10.81 3.56Q10.92 3.15 11.38 2.67L11.38 2.67L11.38 2.67Q12.07 1.96 13.69 1.96ZM12.34 11.73L12.34 11.54L14.35 11.54L14.35 11.73L12.34 11.73ZM17.96 6.80L17.96 2.00L22.76 2.00L22.76 3.60L22.76 3.60Q22.76 3.63 22.72 3.63L22.72 3.63L19.88 3.63L19.88 5.74L22.43 5.74L22.43 5.76L22.43 5.76Q22.43 5.84 22.40 6.79L22.40 6.79L22.40 6.79Q22.38 6.79 22.38 6.80L22.38 6.80L22.50 6.80L22.50 7.29L20.29 7.29L20.29 9.29L19.69 9.29L19.69 9.49L20.29 9.49L20.29 10.10L22.79 10.10L22.79 10.32L22.59 10.32L22.59 11.52L19.60 11.52L19.60 11.73L18.18 11.73L18.18 8.24L17.96 8.24L17.96 7.01L16.41 7.01L16.41 6.80L17.96 6.80ZM18.78 6.80L17.98 6.80L17.98 7.01L18.78 7.01L18.78 6.80ZM23.81 1.96L23.81 1.96L25.81 1.96L25.81 1.96Q25.85 1.96 26.45 3.53L26.45 3.53L26.45 3.53Q26.50 3.59 27.71 6.62L27.71 6.62L28.22 6.62L28.22 1.96L29.96 1.96L29.96 7.51L30.16 7.51L30.16 9.67L29.46 9.67L29.46 10.08L30.16 10.08L30.16 11.37L27.54 11.37L27.54 9.73L27.08 9.73L27.08 9.73Q26.13 7.44 25.81 6.56L25.81 6.56L25.81 4.92L25.56 4.92L25.56 9.93L25.16 9.93L25.16 11.66L23.53 11.66L23.53 7.94L23.82 7.94L23.82 7.92L23.82 7.92Q23.81 3.09 23.81 1.96ZM27.67 6.62L26.75 6.62L26.75 6.98L27.84 6.98L27.84 6.98Q27.71 6.62 27.67 6.62L27.67 6.62ZM29.03 6.62L28.23 6.62L28.23 6.98L27.85 6.98L27.85 6.98Q28.20 7.85 28.27 8.11L28.27 8.11L28.28 8.11L28.28 8.07L28.28 8.07Q28.23 7.18 28.23 6.98L28.23 6.98L29.03 6.98L29.03 6.62ZM27.54 11.73L27.54 11.55L30.71 11.55L30.71 11.73L27.54 11.73ZM31.21 2.02L31.21 2.02L33.97 2.02L33.97 2.02Q35.81 2.02 36.31 2.95L36.31 2.95L36.31 2.95Q36.59 3.44 36.59 4.28L36.59 4.28L36.59 4.96L36.59 4.96Q36.59 5.91 35.77 6.50L35.77 6.50L35.77 6.50Q36.05 6.55 36.48 6.93L36.48 6.93L36.70 6.93L36.70 6.93Q37.10 7.36 37.22 7.75L37.22 7.75L37.22 7.75Q37.26 7.88 37.26 7.90L37.26 7.90L37.52 7.90L37.52 8.06L36.64 8.06L36.64 7.90L34.84 7.90L34.84 7.38L33.06 7.38L33.06 10.21L34.17 10.21L34.17 10.01L34.84 10.01L34.84 8.06L36.64 8.06L36.64 9.78L36.84 9.78L36.84 10.85L36.24 10.85L36.24 11.10L36.84 11.10L36.84 11.55L34.55 11.55L34.55 11.73L32.05 11.73L32.05 11.55L31.50 11.55L31.50 10.06L32.25 10.06L32.25 9.66L31.50 9.66L31.50 9.66Q31.48 8.52 31.48 7.96L31.48 7.96L31.48 7.25L30.85 7.25L30.85 7.07L31.48 7.07L31.48 6.69L31.19 6.69L31.19 2.06L31.19 2.06Q31.19 2.02 31.21 2.02ZM33.41 3.66L33.09 3.66L33.09 6.07L33.50 6.07L33.50 6.07Q34.23 6.07 34.47 5.82L34.47 5.82L34.47 5.82Q34.70 5.63 34.70 4.76L34.70 4.76L34.70 4.72L34.70 4.72Q34.70 3.99 34.47 3.83L34.47 3.83L34.47 3.83Q34.32 3.66 33.41 3.66L33.41 3.66ZM32.40 7.07L31.50 7.07L31.50 7.25L32.40 7.25L32.40 7.07ZM33.92 8.06L33.92 7.90L34.84 7.90L34.84 8.06L33.92 8.06ZM41.41 1.95L41.41 1.95L41.41 1.95Q43.52 1.95 44.18 3.42L44.18 3.42L44.18 3.42Q44.56 4.14 44.56 6.19L44.56 6.19L44.56 6.23L43.83 6.23L43.83 6.56L44.56 6.56L44.56 10.10L44.08 10.10L44.08 11.37L43.13 11.37L43.13 11.73L39.81 11.73L39.81 11.37L39.40 11.37L39.40 10.10L38.55 10.10L38.55 9.10L39.05 9.10L39.05 8.57L38.55 8.57L38.55 9.10L37.34 9.10L37.34 8.57L38.25 8.57L38.25 8.57Q38.24 7.38 38.24 6.74L38.24 6.74L38.24 5.91L38.24 5.91Q38.24 3.58 39.03 2.80L39.03 2.80L39.03 2.80Q39.74 1.95 41.41 1.95ZM40.22 5.32L40.22 5.32L40.24 5.32L40.22 5.35L40.22 6.23L39.48 6.23L39.48 6.56L40.22 6.56L40.22 6.56Q40.20 8.67 40.20 9.75L40.20 9.75L40.20 10.10L41.84 10.10L41.84 9.56L42.59 9.56L42.59 9.54L42.59 9.54Q42.59 8.54 42.57 6.75L42.57 6.75L42.57 6.75Q42.57 6.68 42.59 6.38L42.59 6.38L42.59 6.38Q42.59 4.45 42.36 4.01L42.36 4.01L42.36 4.01Q42.13 3.58 41.51 3.58L41.51 3.58L41.27 3.58L41.27 3.58Q40.52 3.58 40.35 4.24L40.35 4.24L40.35 4.24Q40.26 4.56 40.22 5.32ZM44.56 6.56L44.56 6.23L45.73 6.23L45.73 6.56L44.56 6.56ZM45.00 3.57L45.00 1.93L50.74 1.93L50.74 3.57L48.84 3.57L48.84 10.34L49.70 10.34L49.70 10.54L48.84 10.54L48.84 11.29L48.33 11.29L48.33 11.55L48.69 11.55L48.69 11.73L46.95 11.73L46.95 11.73Q46.92 11.73 46.92 11.70L46.92 11.70L46.92 3.57L45.00 3.57ZM48.83 10.34L48.17 10.34L48.17 10.54L48.83 10.54L48.83 10.34Z"></path></g><!----><g data-v-423bf9ae="" id="8525eff8-5866-4048-a6cf-50da1c0a4609" transform="matrix(1.1111111640930176,0,0,1.1111111640930176,0.6594430804252625,0.4444417953491211)" stroke="none" fill="white"><circle cx="23.177" cy="18.7" r="4.173"></circle><circle cx="49.436" cy="18.7" r="4.173"></circle><path d="M0 0v39.225h31.896v3.34L0 42.567V100h18.544l14.114-14.114-8.111-8.11 8.111-8.111-2.371-2.37-10.48 10.481 4.598 4.599-9.279 9.28h-6.78V50.912h55.921v40.742h-6.778l-9.28-9.28 4.599-4.599-10.483-10.481-2.371 2.37 8.112 8.111-8.112 8.11L54.069 100h18.544V42.567l-31.896-.001v-3.34h31.896V0H0zm64.267 30.879H8.346V7.75h55.921v23.129z"></path><path d="M29.488 77.774l6.817-6.817 6.818 6.818-6.817 6.817z"></path></g><!----></svg>